# xmcd CD database file generated by Grip 3.3.1
# 
# Track frame offsets:
#       150
#       20077
#       48077
#       74425
#       94317
#       110272
#       137462
#       161927
#       178222
#       194445
#       230712
# 
# Disc length: 3394 seconds
# 
# Revision: 2
# Processed by: cddbd v1.5.2PL0 Copyright (c) Steve Scherf et al.
# Submitted via: Grip 3.3.1
# 
DISCID=9e0d400b
DTITLE=The 1992 Telluride Bluegrass Festival [CD2] - The 1992 Telluri
DTITLE=de Bluegrass Festival [CD2]
DYEAR=1992
DGENRE=Bluegrass
TTITLE0=The Heartbeats - Living In Babylon
TTITLE1=Sam Bush and John Cowan - Stingray
TTITLE2=Loose Ties - Englishman In New York
TTITLE3=Jonell Mosser - I'm On Your Side
TTITLE4=Timberline - Circlin'
TTITLE5=Red Knuckles and The Trailblazers - Your Red Wagon
TTITLE6=Bela Fleck and The Flecktones - Sunset Road
TTITLE7=Kevin Welch - Too Old To Die Young
TTITLE8=Blue Rodeo - How Long
TTITLE9=Dougie MacLean - The Mhairi Bahn
TTITLE10=Mary-Chapin Carpenter - The Moon And St. Christopher
EXTD=
EXTT0=
EXTT1=
EXTT2=
EXTT3=
EXTT4=
EXTT5=
EXTT6=
EXTT7=
EXTT8=
EXTT9=
EXTT10=
PLAYORDER=
